<svg xmlns="http://www.w3.org/2000/svg" viewBox="0 0 1200 750" role="img" aria-label="Livediag real-time diagnostics app preview" fill="none">
  <rect width="1200" height="750" fill="#0c1a17"/>
  <rect width="1200" height="750" fill="url(#ld-glow)"/>
  <rect x="0" y="0" width="1200" height="64" fill="#102b25"/>
  <circle cx="40" cy="32" r="7" fill="#1c4a40"/>
  <circle cx="66" cy="32" r="7" fill="#1c4a40"/>
  <circle cx="92" cy="32" r="7" fill="#1c4a40"/>
  <rect x="140" y="20" width="360" height="24" rx="12" fill="#0c1a17"/>
  <text x="160" y="37" font-family="ui-sans-serif,system-ui,sans-serif" font-size="15" fill="#54cba4">livediag.com</text>
  <rect x="56" y="104" width="300" height="546" rx="16" fill="#102b25" stroke="#1c4a40"/>
  <rect x="80" y="132" width="160" height="14" rx="7" fill="#2ec299"/>
  <rect x="80" y="176" width="252" height="40" rx="10" fill="#15362e"/>
  <rect x="80" y="228" width="252" height="40" rx="10" fill="#15362e"/>
  <rect x="80" y="280" width="252" height="40" rx="10" fill="#1c4a40"/>
  <rect x="80" y="332" width="252" height="40" rx="10" fill="#15362e"/>
  <rect x="392" y="104" width="752" height="290" rx="16" fill="#102b25" stroke="#1c4a40"/>
  <polyline points="420,330 500,300 580,318 660,250 740,272 820,200 900,224 980,150 1060,176 1116,140" fill="none" stroke="#2ec299" stroke-width="4" stroke-linecap="round" stroke-linejoin="round"/>
  <polyline points="420,360 500,348 580,356 660,330 740,340 820,310 900,322 980,300 1060,312 1116,296" fill="none" stroke="#3d93c9" stroke-width="3" stroke-linecap="round" stroke-linejoin="round" stroke-opacity="0.6"/>
  <circle cx="980" cy="150" r="7" fill="#2ec299"/>
  <rect x="392" y="418" width="366" height="232" rx="16" fill="#102b25" stroke="#1c4a40"/>
  <rect x="420" y="446" width="120" height="14" rx="7" fill="#2ec299"/>
  <rect x="420" y="488" width="310" height="40" rx="8" fill="#15362e"/>
  <rect x="420" y="540" width="310" height="40" rx="8" fill="#15362e"/>
  <rect x="420" y="592" width="200" height="40" rx="8" fill="#15362e"/>
  <rect x="778" y="418" width="366" height="232" rx="16" fill="#102b25" stroke="#1c4a40"/>
  <circle cx="961" cy="520" r="74" fill="none" stroke="#15362e" stroke-width="16"/>
  <circle cx="961" cy="520" r="74" fill="none" stroke="#2ec299" stroke-width="16" stroke-dasharray="350 465" stroke-linecap="round" transform="rotate(-90 961 520)"/>
  <defs>
    <radialGradient id="ld-glow" cx="0.8" cy="0.1" r="0.9">
      <stop offset="0" stop-color="#2ec299" stop-opacity="0.3"/>
      <stop offset="1" stop-color="#2ec299" stop-opacity="0"/>
    </radialGradient>
  </defs>
</svg>
