<svg xmlns="http://www.w3.org/2000/svg" viewBox="0 0 1200 750" role="img" aria-label="Open Sourced hosting dashboard preview" fill="none">
  <rect width="1200" height="750" fill="#0e1b1a"/>
  <rect width="1200" height="750" fill="url(#os-glow)"/>
  <rect x="0" y="0" width="1200" height="64" fill="#13302d"/>
  <circle cx="40" cy="32" r="7" fill="#1f4a45"/>
  <circle cx="66" cy="32" r="7" fill="#1f4a45"/>
  <circle cx="92" cy="32" r="7" fill="#1f4a45"/>
  <rect x="140" y="20" width="360" height="24" rx="12" fill="#0e1b1a"/>
  <text x="160" y="37" font-family="ui-sans-serif,system-ui,sans-serif" font-size="15" fill="#5fb6a7">opensourced.ch</text>
  <rect x="56" y="120" width="280" height="22" rx="6" fill="#2aa893"/>
  <rect x="56" y="160" width="520" height="14" rx="7" fill="#274d48"/>
  <rect x="56" y="186" width="430" height="14" rx="7" fill="#274d48"/>
  <g>
    <rect x="56" y="260" width="340" height="180" rx="16" fill="#13302d" stroke="#1f4a45"/>
    <rect x="80" y="288" width="44" height="44" rx="12" fill="#2aa893"/>
    <rect x="80" y="352" width="180" height="14" rx="7" fill="#274d48"/>
    <rect x="80" y="380" width="240" height="12" rx="6" fill="#1f3b38"/>
    <rect x="80" y="404" width="120" height="12" rx="6" fill="#1f3b38"/>
  </g>
  <g>
    <rect x="430" y="260" width="340" height="180" rx="16" fill="#13302d" stroke="#1f4a45"/>
    <rect x="454" y="288" width="44" height="44" rx="12" fill="#2aa893"/>
    <rect x="454" y="352" width="180" height="14" rx="7" fill="#274d48"/>
    <rect x="454" y="380" width="240" height="12" rx="6" fill="#1f3b38"/>
    <rect x="454" y="404" width="120" height="12" rx="6" fill="#1f3b38"/>
  </g>
  <g>
    <rect x="804" y="260" width="340" height="180" rx="16" fill="#13302d" stroke="#1f4a45"/>
    <rect x="828" y="288" width="44" height="44" rx="12" fill="#2aa893"/>
    <rect x="828" y="352" width="180" height="14" rx="7" fill="#274d48"/>
    <rect x="828" y="380" width="240" height="12" rx="6" fill="#1f3b38"/>
    <rect x="828" y="404" width="120" height="12" rx="6" fill="#1f3b38"/>
  </g>
  <rect x="56" y="500" width="1088" height="180" rx="16" fill="#13302d" stroke="#1f4a45"/>
  <rect x="80" y="528" width="220" height="16" rx="8" fill="#2aa893"/>
  <rect x="80" y="568" width="1040" height="10" rx="5" fill="#1f3b38"/>
  <rect x="80" y="592" width="1040" height="10" rx="5" fill="#1f3b38"/>
  <rect x="80" y="616" width="760" height="10" rx="5" fill="#1f3b38"/>
  <defs>
    <radialGradient id="os-glow" cx="0.85" cy="0.1" r="0.9">
      <stop offset="0" stop-color="#2aa893" stop-opacity="0.32"/>
      <stop offset="1" stop-color="#2aa893" stop-opacity="0"/>
    </radialGradient>
  </defs>
</svg>
